<svg width="12" height="12" viewBox="0 0 12 12" fill="none" xmlns="http://www.w3.org/2000/svg">
<g clip-path="url(#clip0_92_200)">
<path d="M5.29301 3.17159L6.35367 2.11093C6.58582 1.87878 6.86141 1.69464 7.16473 1.569C7.46804 1.44336 7.79313 1.3787 8.12144 1.3787C8.44974 1.3787 8.77483 1.44336 9.07815 1.569C9.38146 1.69464 9.65706 1.87878 9.8892 2.11093C10.1213 2.34308 10.3055 2.61867 10.4311 2.92199C10.5568 3.2253 10.6214 3.55039 10.6214 3.8787C10.6214 4.207 10.5568 4.53209 10.4311 4.83541C10.3055 5.13872 10.1213 5.41432 9.8892 5.64646L8.82854 6.70712M6.70722 8.82844L5.64656 9.8891C5.41442 10.1213 5.13882 10.3054 4.8355 10.431C4.53219 10.5567 4.2071 10.6213 3.8788 10.6213C3.21575 10.6213 2.57987 10.3579 2.11103 9.8891C1.64219 9.42026 1.3788 8.78438 1.3788 8.12134C1.3788 7.4583 1.64219 6.82241 2.11103 6.35357L3.17169 5.29291" stroke="#47494D" stroke-linecap="round" stroke-linejoin="round"/>
<path d="M4.58569 7.41418L7.41412 4.58576" stroke="#47494D" stroke-linecap="round" stroke-linejoin="round"/>
</g>
<defs>
<clipPath id="clip0_92_200">
<rect width="12" height="12" fill="white"/>
</clipPath>
</defs>
</svg>
