<svg width="62" height="75" viewBox="0 0 62 75" fill="none" xmlns="http://www.w3.org/2000/svg">
<g clip-path="url(#clip0_5_15)">
<path fill-rule="evenodd" clip-rule="evenodd" d="M19.7 8.101L19.6 7.801C20.4 5.66767 21.7333 4.001 23.6 2.801C24.6923 2.08569 25.9006 1.56562 27.171 1.264C27.9348 1.0882 28.7162 0.999963 29.5 1.001C30.5284 0.988464 31.5488 1.18229 32.501 1.571C33.4972 1.99516 34.3854 2.63763 35.1 3.451C36.4747 4.981 37.205 7.46233 37.291 10.895C37.297 11.1303 37.3 11.3656 37.3 11.601C37.3 13.3283 37.1533 15.3577 36.86 17.689C36.7387 18.6451 36.6021 19.5993 36.45 20.551C36.1139 22.6505 35.7265 24.7415 35.288 26.822C34.9204 28.5713 34.5244 30.3146 34.1 32.051C33.1 36.151 32 40.201 30.8 44.201C30.2396 46.0741 29.6489 47.938 29.028 49.792C28.4187 51.6067 27.8093 53.3097 27.2 54.901C30.1333 55.5677 33.0833 56.3343 36.05 57.201C39.0167 58.0677 41.9333 58.501 44.8 58.501C47 58.501 49.1167 58.101 51.15 57.301C53.0607 56.549 54.868 55.2087 56.572 53.28C56.6828 53.1549 56.7921 53.0286 56.9 52.901C58.106 53.6891 59.0594 54.8081 59.646 56.124C59.7184 56.2811 59.7864 56.4401 59.85 56.601C60.4833 58.201 60.8 59.901 60.8 61.701C60.8 63.701 60.3833 65.651 59.55 67.551C58.7167 69.451 57.4333 71.0343 55.7 72.301C54.6803 73.0337 53.5248 73.5559 52.301 73.837C51.4217 74.049 50.4693 74.1683 49.444 74.195C49.296 74.1989 49.148 74.2009 49 74.201C47.8427 74.1956 46.6874 74.1064 45.543 73.934C44.441 73.7727 43.2857 73.5387 42.077 73.232C41.6664 73.1277 41.2573 73.0174 40.85 72.901C37.8167 72.0343 34.65 71.0843 31.35 70.051C28.05 69.0177 24.7667 68.2677 21.5 67.801C20.721 68.5383 19.9081 69.2391 19.064 69.901C17.6993 70.9643 16.3947 71.781 15.15 72.351C14.488 72.657 13.8081 72.9229 13.114 73.147C12.4067 73.3717 11.7327 73.528 11.092 73.616C10.6971 73.6714 10.2988 73.6998 9.9 73.701C9.0453 73.7086 8.19468 73.5824 7.379 73.327C6.50581 73.0474 5.69707 72.5966 5 72.001C3.79743 70.971 2.84968 69.6765 2.231 68.219C2.14927 68.0316 2.07225 67.8422 2 67.651C1.33333 65.8843 1 64.0677 1 62.201C1 60.2677 1.35 58.4343 2.05 56.701C2.75 54.9677 3.83333 53.551 5.3 52.451C6.22914 51.7644 7.29591 51.2872 8.427 51.052C9.23985 50.8793 10.069 50.7951 10.9 50.801C11.3667 50.801 11.8667 50.8343 12.4 50.901C12.7479 50.945 13.0944 50.9996 13.439 51.065C13.6601 51.1068 13.8804 51.1521 14.1 51.201C14.8438 48.9174 15.5092 46.6091 16.095 44.28C16.5912 42.3141 17.043 40.3373 17.45 38.351C18.4167 33.651 19.1833 29.0343 19.75 24.501C20.184 21.0297 20.4517 17.9103 20.553 15.143C20.5836 14.3294 20.5993 13.5152 20.6 12.701C20.6 11.6957 20.5623 10.9083 20.487 10.339C20.466 10.175 20.4369 10.0122 20.4 9.851C20.3158 9.49932 20.2011 9.15567 20.057 8.824C19.9503 8.57714 19.8311 8.33583 19.7 8.101Z" fill="#58A6FF" stroke="#58A6FF" stroke-width="0.944882" stroke-linecap="round"/>
</g>
<defs>
<clipPath id="clip0_5_15">
<rect width="62" height="75" fill="white"/>
</clipPath>
</defs>
</svg>
